<?xml version="1.0" encoding="UTF-8" standalone="no"?>
<!-- Created with Inkscape (http://www.inkscape.org/) -->

<svg
   xmlns:dc="http://purl.org/dc/elements/1.1/"
   xmlns:cc="http://creativecommons.org/ns#"
   xmlns:rdf="http://www.w3.org/1999/02/22-rdf-syntax-ns#"
   xmlns:svg="http://www.w3.org/2000/svg"
   xmlns="http://www.w3.org/2000/svg"
   xmlns:sodipodi="http://sodipodi.sourceforge.net/DTD/sodipodi-0.dtd"
   xmlns:inkscape="http://www.inkscape.org/namespaces/inkscape"
   width="200mm"
   height="200mm"
   viewBox="0 0 200 200"
   version="1.1"
   id="svg1271"
   inkscape:version="0.92.3 (unknown)"
   sodipodi:docname="plane.svg">
  <defs
     id="defs1265" />
  <sodipodi:namedview
     id="base"
     pagecolor="#ffffff"
     bordercolor="#666666"
     borderopacity="1.0"
     inkscape:pageopacity="0.0"
     inkscape:pageshadow="2"
     inkscape:zoom="0.34175489"
     inkscape:cx="215.16907"
     inkscape:cy="33.600179"
     inkscape:document-units="mm"
     inkscape:current-layer="layer1"
     showgrid="false"
     inkscape:window-width="1313"
     inkscape:window-height="744"
     inkscape:window-x="53"
     inkscape:window-y="24"
     inkscape:window-maximized="1" />
  <metadata
     id="metadata1268">
    <rdf:RDF>
      <cc:Work
         rdf:about="">
        <dc:format>image/svg+xml</dc:format>
        <dc:type
           rdf:resource="http://purl.org/dc/dcmitype/StillImage" />
        <dc:title></dc:title>
      </cc:Work>
    </rdf:RDF>
  </metadata>
  <g
     inkscape:label="Layer 1"
     inkscape:groupmode="layer"
     id="layer1"
     transform="translate(0,-97)">
    <path
       style="fill:#000000;stroke-width:0.12063438"
       d="m 160.42631,276.65441 c 0.0773,-0.13384 0.24479,-0.34873 0.37227,-0.47748 0.30035,-0.30318 0.30786,-0.29273 -1.85317,-2.57065 -0.97835,-1.03124 -1.7788,-1.89943 -1.77878,-1.92931 0,-0.0298 0.41993,-0.52515 0.93322,-1.1006 l 0.93326,-1.04625 0.4272,0.24593 c 0.23497,0.13527 1.18781,0.81337 2.11745,1.50688 0.92964,0.69352 1.75348,1.27587 1.83077,1.29412 0.18775,0.0443 0.67505,-0.57789 2.95017,-3.76642 2.40714,-3.37366 2.26627,-3.14398 2.0994,-3.42269 -0.0778,-0.12982 -2.24915,-2.77133 -4.82532,-5.86995 -2.57618,-3.09862 -4.78276,-5.77564 -4.90351,-5.94893 -0.27123,-0.38918 -0.13105,-0.60929 1.30303,-2.04606 1.39851,-1.40134 1.16556,-1.45428 3.56027,0.81026 1.05472,0.99746 3.50121,3.34901 5.43659,5.22574 1.93541,1.87672 3.58737,3.42843 3.6711,3.44819 0.0892,0.021 0.71595,-0.45728 1.51282,-1.15454 1.82215,-1.59435 3.27464,-2.49913 3.67717,-2.29056 0.12123,0.0628 0.55848,0.003 0.97165,-0.13299 0.41316,-0.13596 0.81406,-0.23238 0.89086,-0.21424 0.0768,0.0181 0.026,0.32694 -0.11299,0.68623 -0.14705,0.38025 -0.22323,0.87177 -0.18227,1.17606 0.0433,0.32177 -0.0181,0.68626 -0.1597,0.94794 -0.40926,0.75628 -1.40784,2.0998 -2.35895,3.1738 l -0.92869,1.04861 5.41237,5.52734 c 6.35522,6.49028 5.84117,5.70711 4.56437,6.95394 -0.43373,0.42383 -1.0415,0.97376 -1.35033,1.22235 -0.52515,0.42276 -0.58227,0.4397 -0.88273,0.26147 -0.17667,-0.10483 -1.72602,-1.31923 -3.44297,-2.69873 -3.04323,-2.4451 -7.47863,-5.96639 -8.28915,-6.58083 -0.22211,-0.16837 -0.47896,-0.27267 -0.57078,-0.23177 -0.19733,0.0879 -5.02633,3.62931 -6.03219,4.42381 -0.38261,0.30228 -0.68368,0.60053 -0.66874,0.66308 0.0147,0.0624 0.51958,0.79157 1.12194,1.62052 2.06516,2.84211 2.05073,2.76434 0.73694,3.96803 -0.46303,0.42415 -0.88153,0.77123 -0.93004,0.77126 -0.0485,0 -0.98888,-0.84831 -2.08978,-1.88506 -1.31529,-1.23878 -2.04383,-1.86365 -2.1249,-1.82266 -0.0678,0.0343 -0.32826,0.18377 -0.57869,0.33212 -0.50319,0.29808 -0.67376,0.25432 -0.45896,-0.11775 z m 3.56274,-3.30402 c 0.5948,-0.72307 0.40627,-0.55908 -1.33028,1.15769 -1.11279,1.10006 -2.0233,2.0578 -2.02336,2.1283 -2.6e-4,0.18961 2.55116,-2.31031 3.35368,-3.28594 z m -4.10699,0.66989 c 0.19684,0.0536 0.57514,0.32882 0.91665,0.66679 0.44671,0.44246 0.62427,0.55639 0.76647,0.49304 0.39864,-0.17753 0.22702,-0.401 -1.57986,-2.05697 -1.59719,-1.46383 -1.78228,-1.60559 -1.94854,-1.49263 -0.43361,0.29459 -0.37998,0.42071 0.58743,1.38178 0.63818,0.63394 1.02602,0.94484 1.25785,1.00799 z m 5.63504,5.25119 0.29344,-0.34633 -1.7104,-1.75665 -1.7104,-1.75664 -0.16621,0.22123 c -0.14344,0.19096 -0.10585,0.30092 0.27492,0.80368 0.2426,0.32038 0.4656,0.67317 0.49551,0.78402 0.0299,0.1108 0.54383,0.69554 1.14207,1.29931 l 1.0878,1.09769 z m -7.0871,-8.2348 c 0.78139,-0.78139 1.01432,-1.13453 0.70226,-1.0646 -0.21577,0.0483 -1.65285,1.45033 -1.65282,1.61252 0,0.27801 0.29436,0.10835 0.9506,-0.54788 z m 8.11061,7.92605 c 0.57874,-0.57874 0.85137,-0.91233 0.76267,-0.93327 -0.077,-0.0182 -0.51269,0.34208 -0.986,0.81539 -0.50845,0.50845 -0.81383,0.88214 -0.76268,0.93329 0.0515,0.0515 0.4424,-0.27181 0.98601,-0.81541 z m -5.3019,-4.97692 0.75854,0.64893 0.33344,-0.33344 c 0.1834,-0.1834 0.46493,-0.55346 0.62566,-0.82234 l 0.29221,-0.48891 -0.78948,-0.6772 c -1.15854,-0.99386 -2.74171,-2.11828 -2.92596,-2.07814 -0.0881,0.0192 -0.3816,0.25504 -0.65207,0.52409 l -0.4919,0.48907 1.04536,1.04454 c 0.57492,0.57451 1.38679,1.33645 1.80397,1.69338 z m 5.38201,4.1291 0.55431,-0.55431 -0.75223,-1.03909 c -0.41374,-0.57151 -1.03681,-1.37713 -1.38462,-1.7903 -0.72905,-0.86609 -0.61878,-0.87055 -1.77504,0.0722 l -0.63639,0.51887 1.71986,1.67347 1.71987,1.67348 z m 0.72993,-6.7769 c 3.28114,-2.47665 4.94131,-3.97521 7.82622,-7.06435 l 1.79454,-1.92154 -0.12829,-0.40708 c -0.0706,-0.22389 -0.33187,-0.66415 -0.58067,-0.97835 l -0.45234,-0.57127 0.46224,0.4389 c 0.25418,0.24146 0.54248,0.63427 0.64053,0.87309 0.24305,0.59195 0.29137,0.62063 0.57231,0.33969 l 0.24427,-0.24427 -1.2574,-1.17369 c -0.6916,-0.64549 -1.27185,-1.17539 -1.28957,-1.17741 -0.0176,-0.002 -0.0961,0.10603 -0.17472,0.23977 -0.10155,0.17353 -0.0861,0.26639 0.054,0.32313 0.10811,0.0438 0.30755,0.16051 0.44327,0.25937 0.23579,0.17173 0.23477,0.17509 -0.0227,0.0753 -0.14822,-0.0574 -0.44482,-0.0679 -0.65911,-0.0233 -0.35859,0.0747 -0.64792,0.33942 -3.63487,3.32637 l -3.24525,3.24526 -1.73417,2.53091 c -0.95379,1.39199 -2.02363,2.87479 -2.37742,3.29511 -0.35382,0.42029 -0.60983,0.79764 -0.56897,0.8385 0.0409,0.0409 0.39576,-0.24719 0.78868,-0.64011 0.78111,-0.78111 1.33681,-1.19822 1.37583,-1.0328 0.0137,0.0583 -0.41513,0.60693 -0.95307,1.21933 -1.14022,1.29805 -1.4023,1.45929 2.87673,-1.77055 z m 9.86371,1.34399 c 0.0739,0.0668 0.25678,-0.0435 0.53834,-0.32509 0.51353,-0.51353 0.70877,-0.26969 -2.04817,-2.55811 -3.04508,-2.52758 -2.8581,-2.40453 -3.24823,-2.13766 -0.18214,0.12457 -0.36489,0.33816 -0.40623,0.47453 -0.0733,0.24218 -0.015,0.29716 2.48869,2.34645 1.41007,1.15416 2.61408,2.14411 2.6756,2.19988 z m -7.77388,-7.74163 0.37916,-0.43121 -0.37036,-0.48264 c -0.20368,-0.26548 -1.2532,-1.42314 -2.33223,-2.5726 l -1.96184,-2.08998 -0.26647,0.26647 c -0.16692,0.16692 -0.24009,0.35167 -0.19592,0.49448 0.0388,0.12538 0.73757,1.01963 1.55285,1.98715 0.81527,0.96753 1.604,1.90615 1.75276,2.08581 0.14872,0.17969 0.44876,0.5172 0.66669,0.75012 l 0.39621,0.4235 z m -6.63206,-7.0335 c 0.11908,0 0.4619,0.29579 0.93411,0.80612 0.71558,0.77342 0.75324,0.79878 0.92764,0.62432 0.16833,-0.16842 0.12764,-0.24418 -0.55137,-1.0268 -1.36509,-1.57336 -3.46846,-3.90415 -4.05194,-4.49006 -0.55335,-0.55618 -0.58816,-0.57275 -0.74518,-0.36373 -0.14418,0.19183 -0.10408,0.29681 0.32143,0.842 0.38072,0.48778 2.08086,2.55058 2.85582,3.465 0.0671,0.0784 0.20603,0.1431 0.3095,0.14313 z m 18.10892,17.72746 c 1.47985,1.17189 2.77422,2.1307 2.87638,2.1307 0.10211,0 0.24083,-0.1062 0.30805,-0.23607 0.153,-0.29527 0.19178,-0.25626 -2.81572,-2.83283 -3.1814,-2.7255 -2.95284,-2.57853 -3.3666,-2.16477 -0.33338,0.33338 -0.33378,0.34085 -0.015,0.65479 0.17735,0.17452 1.53309,1.27627 3.01294,2.44815 z m -20.64432,-23.50095 c 0.92297,-0.92297 1.16849,-1.21785 1.0595,-1.27275 -0.1757,-0.0884 -1.07732,0.71043 -1.85469,1.64335 -0.93346,1.12023 -0.48807,0.91266 0.79519,-0.3706 z m 9.66438,11.78891 c 0.23629,0.13645 0.27503,0.10884 1.33536,-0.9515 0.6006,-0.60059 1.12951,-1.17631 1.17541,-1.27935 0.0753,-0.16909 -0.39514,-0.65681 -4.83749,-5.01483 -2.70648,-2.65514 -5.14276,-5.00869 -5.41392,-5.23014 l -0.49302,-0.40265 -0.83057,0.83057 c -0.53292,0.53293 -0.84256,0.91893 -0.86395,1.0772 -0.0398,0.29416 1.24149,1.76393 5.5024,6.31185 3.63905,3.88417 3.93962,4.20722 4.07024,4.37459 0.0617,0.0791 0.22168,0.20697 0.35552,0.28424 z m 4.35733,4.30077 c 0.56041,0.47174 2.21021,1.8928 3.66627,3.15785 4.62034,4.01426 6.417,5.51911 6.6149,5.54055 0.20892,0.0226 0.87466,-0.59426 1.42756,-1.32277 l 0.34153,-0.45 -2.40555,-2.40556 c -1.32306,-1.32306 -3.76152,-3.71074 -5.4189,-5.30589 l -3.01326,-2.90041 -1.20884,1.20884 c -0.66486,0.66486 -1.20883,1.26002 -1.20886,1.32256 0,0.14246 -0.0189,0.12438 1.20517,1.15482 z m 11.30141,8.53619 c 0.56819,-0.59562 0.95864,-1.07857 0.92158,-1.13987 -0.076,-0.12559 -1.87021,1.54024 -2.23411,2.07421 -0.23337,0.34241 -0.23186,0.35052 0.0423,0.22715 0.15638,-0.0704 0.72797,-0.59306 1.27023,-1.16147 z m -8.33451,-15.6402 c 0.49046,0.48925 0.49119,0.48978 0.75147,0.2295 0.41329,-0.41329 1.17755,-1.69289 1.17756,-1.97157 -1e-5,-0.2734 -1.16069,-1.52752 -1.47941,-1.59848 -0.18555,-0.0413 -0.80528,0.3359 -1.65391,1.00671 -0.69768,0.55148 -0.6886,0.66002 0.11202,1.33623 0.33061,0.27928 0.82212,0.72822 1.09224,0.99764 z m 1.89301,-2.78867 c 0.19651,-0.19652 0.40068,-0.71932 0.31455,-0.80546 -0.073,-0.073 -0.70916,0.17644 -0.8762,0.34348 -0.04,0.0399 0.0426,0.18773 0.18334,0.32847 0.16544,0.16544 0.29918,0.21264 0.37831,0.13351 z"
       id="path3146"
       inkscape:connector-curvature="0" />
  </g>
</svg>
